<!DOCTYPE svg PUBLIC "-//W3C//DTD SVG 1.1//EN" "http://www.w3.org/Graphics/SVG/1.1/DTD/svg11.dtd">
<!-- Uploaded to: SVG Repo, www.svgrepo.com, Transformed by: SVG Repo Mixer Tools -->
<svg version="1.1" id="Layer_1" xmlns="http://www.w3.org/2000/svg" xmlns:xlink="http://www.w3.org/1999/xlink" viewBox="0 0 512 512" xml:space="preserve" width="800px" height="800px" fill="#000000">
<g id="SVGRepo_bgCarrier" stroke-width="0"/>
<g id="SVGRepo_tracerCarrier" stroke-linecap="round" stroke-linejoin="round"/>
<g id="SVGRepo_iconCarrier"> <polygon style="fill:#2C3E50;" points="104,198.352 93.44,186.32 258.816,41.296 418.432,186.416 407.68,198.272 258.624,62.736 "/> <circle cx="258.72" cy="64.464" r="37.472"/> <rect y="177.264" style="fill:#FF4B60;" width="512" height="307.744"/> <g> <path style="fill:#FFFFFF;" d="M104.24,384.528v-14.592l13.328-12.064c22.544-20.16,33.488-31.728,33.808-43.792 c0-8.416-5.072-15.072-16.992-15.072c-8.896,0-16.656,4.432-22.064,8.56l-6.816-17.296c7.76-5.872,19.824-10.624,33.792-10.624 c23.328,0,36.176,13.648,36.176,32.368c0,17.296-12.528,31.088-27.456,44.416l-9.52,7.936v0.32h38.88v19.84L104.24,384.528 L104.24,384.528z"/> <path style="fill:#FFFFFF;" d="M235.024,384.528v-24.592h-45.696v-15.712l39.024-62.848h29.52v60.464h12.384v18.096h-12.384v24.592 H235.024z M235.024,341.84v-22.864c0-6.192,0.32-12.528,0.8-19.184h-0.64c-3.328,6.656-6.032,12.688-9.52,19.184l-13.808,22.544 v0.32H235.024z"/> <path style="fill:#FFFFFF;" d="M276.32,390.88l33.968-115.04h16.016l-33.952,115.04H276.32z"/> <path style="fill:#FFFFFF;" d="M406.928,281.376v15.232l-42.528,87.92h-25.552l42.528-83.008v-0.32h-47.28v-19.84h72.832V281.376z"/> </g> </g>
</svg>