<!DOCTYPE svg PUBLIC "-//W3C//DTD SVG 1.1//EN" "http://www.w3.org/Graphics/SVG/1.1/DTD/svg11.dtd">
<!-- Uploaded to: SVG Repo, www.svgrepo.com, Transformed by: SVG Repo Mixer Tools -->
<svg version="1.1" id="Layer_1" xmlns="http://www.w3.org/2000/svg" xmlns:xlink="http://www.w3.org/1999/xlink" viewBox="0 0 504 504" xml:space="preserve" width="800px" height="800px" fill="#000000">
<g id="SVGRepo_bgCarrier" stroke-width="0"/>
<g id="SVGRepo_tracerCarrier" stroke-linecap="round" stroke-linejoin="round"/>
<g id="SVGRepo_iconCarrier"> <circle style="fill:#FF4B60;" cx="252" cy="252" r="252"/> <circle style="fill:#324A5E;" cx="252" cy="252" r="173.6"/> <circle style="fill:#FFFFFF;" cx="252" cy="252" r="135.6"/> <g> <rect x="245.2" y="126.8" style="fill:#F1543F;" width="13.6" height="20.4"/> <rect x="245.2" y="357.2" style="fill:#F1543F;" width="13.6" height="20.4"/> <rect x="357.2" y="245.2" style="fill:#F1543F;" width="20.4" height="13.6"/> <rect x="126.8" y="245.2" style="fill:#F1543F;" width="20.4" height="13.6"/> </g> <g> <rect x="326.737" y="160.513" transform="matrix(-0.7071 -0.7071 0.7071 -0.7071 448.6718 527.2711)" style="fill:#324A5E;" width="13.6" height="20.4"/> <rect x="163.986" y="323.389" transform="matrix(-0.7071 -0.7071 0.7071 -0.7071 55.6664 690.235)" style="fill:#324A5E;" width="13.6" height="20.4"/> <rect x="326.588" y="323.461" transform="matrix(0.7071 -0.7071 0.7071 0.7071 -138.2873 333.4677)" style="fill:#324A5E;" width="13.6" height="20.4"/> <rect x="163.579" y="160.566" transform="matrix(0.7071 -0.7071 0.7071 0.7071 -70.8465 170.4924)" style="fill:#324A5E;" width="13.6" height="20.4"/> </g> <path style="fill:#FFD05B;" d="M252,209.6c12.4-15.6,29.2-18.8,41.6-14c29.6,11.6,36.8,55.2,11.2,82.4 C252,334.4,252,334.4,252,334.4s0,0-52.8-56.4c-25.6-27.6-18.4-70.8,11.2-82.4C222.8,190.4,239.6,194,252,209.6z"/> <polygon style="fill:#324A5E;" points="308.4,260 244,260 244,160.8 260,160.8 260,244 308.4,244 "/> </g>
</svg>